<?xml version="1.0" encoding="UTF-8" standalone="no"?>
<!-- Created with Inkscape (http://www.inkscape.org/) -->

<svg
   xmlns:dc="http://purl.org/dc/elements/1.1/"
   xmlns:cc="http://creativecommons.org/ns#"
   xmlns:rdf="http://www.w3.org/1999/02/22-rdf-syntax-ns#"
   xmlns:svg="http://www.w3.org/2000/svg"
   xmlns="http://www.w3.org/2000/svg"
   xmlns:sodipodi="http://sodipodi.sourceforge.net/DTD/sodipodi-0.dtd"
   xmlns:inkscape="http://www.inkscape.org/namespaces/inkscape"
   width="200"
   height="135"
   id="svg3883"
   version="1.1"
   inkscape:version="0.48.5 r10040"
   sodipodi:docname="mathfield.svg">
  <sodipodi:namedview
     id="base"
     pagecolor="#ffffff"
     bordercolor="#666666"
     borderopacity="1.0"
     inkscape:pageopacity="0.0"
     inkscape:pageshadow="2"
     inkscape:zoom="4"
     inkscape:cx="137.86565"
     inkscape:cy="57.061632"
     inkscape:document-units="px"
     inkscape:current-layer="svg3883"
     showgrid="false"
     inkscape:window-width="1537"
     inkscape:window-height="876"
     inkscape:window-x="63"
     inkscape:window-y="24"
     inkscape:window-maximized="1" />
  <defs
     id="defs3885" />
  <metadata
     id="metadata3888">
    <rdf:RDF>
      <cc:Work
         rdf:about="">
        <dc:format>image/svg+xml</dc:format>
        <dc:type
           rdf:resource="http://purl.org/dc/dcmitype/StillImage" />
        <dc:title />
      </cc:Work>
    </rdf:RDF>
  </metadata>
  <g
     inkscape:label="Layer 1"
     inkscape:groupmode="layer"
     id="layer1"
     transform="translate(0,-917.36217)">
    <g
       id="g2995">
      <g
         id="content"
         transform="matrix(0.192857142857,0,0,-0.192857142857,-33.75,150.0)"
         xml:space="preserve"
         stroke="black"
         stroke-linecap="butt"
         stroke-linejoin="miter"
         stroke-miterlimit="10.433"
         stroke-dasharray="none"
         stroke-dashoffset="0"
         stroke-opacity="1"
         fill="none"
         fill-rule="evenodd"
         fill-opacity="1"
         font-style="normal"
         font-variant="normal"
         font-weight="normal"
         font-stretch="normal"
         font-size-adjust="none"
         letter-spacing="normal"
         word-spacing="normal"
         text-anchor="start"><path
           d="M460.71,347.53 L460.85,347.54 L461,347.56 L461.14,347.59 L461.27,347.62 L461.4,347.65 L461.52,347.69 L461.64,347.74 L461.76,347.78 L461.87,347.84 L461.98,347.9 L462.08,347.96 L462.18,348.03 L462.27,348.1 L462.36,348.17 L462.44,348.25 L462.52,348.33 L462.6,348.41 L462.67,348.5 L462.73,348.59 L462.79,348.69 L462.85,348.78 L462.9,348.88 L462.95,348.98 L462.99,349.09 L463.02,349.19 L463.06,349.3 L463.08,349.41 L463.11,349.52 L463.12,349.64 L463.14,349.75 L463.14,349.87 L463.14,349.98 C463.14,351.62,461.89,352.42,460.75,352.42 C459.55,352.42,458.32,351.67,458.32,349.94 C458.32,347.39,460.8,345.3,463.83,345.3 C471.41,345.3,474.25,356.95,477.79,371.41 C481.63,387.14,484.86,403.05,487.55,419.03 C489.39,429.64,491.24,439.61,492.94,446.03 C493.54,448.48,495.22,454.91,497.18,454.91 C498.71,454.91,499.96,453.95,500.16,453.77 C498.52,453.66,497.68,452.56,497.68,451.31 C497.68,449.67,498.91,448.88,500.07,448.88 C501.25,448.88,502.5,449.62,502.5,451.36 C502.5,454.06,499.82,456,497.07,456 C493.29,456,490.49,450.56,487.75,440.41 C487.6,439.86,480.83,414.84,475.35,382.27 C474.05,374.64,472.61,366.33,470.96,359.39 C470.07,355.77,467.77,346.39,463.74,346.39 C461.94,346.39,460.75,347.53,460.71,347.53 Z "
           stroke-width="0"
           fill="black"
           id="path2998" /><path
           d="M539.42,422.23 L539.42,422.23 L539.42,422.24 L539.42,422.24 L539.42,422.25 L539.42,422.27 L539.42,422.28 L539.42,422.3 L539.42,422.32 L539.41,422.34 L539.41,422.36 L539.4,422.38 L539.4,422.4 L539.39,422.42 L539.38,422.45 L539.37,422.47 L539.36,422.5 L539.34,422.52 L539.33,422.55 L539.31,422.57 L539.29,422.59 L539.27,422.62 L539.25,422.63 L539.24,422.64 L539.23,422.65 L539.21,422.66 L539.2,422.67 L539.18,422.68 L539.17,422.69 L539.15,422.7 L539.13,422.71 L539.12,422.72 L539.1,422.72 L539.08,422.73 L539.06,422.74 L539.04,422.74 L539.02,422.75 L538.99,422.76 L538.97,422.76 L538.94,422.76 L538.92,422.77 L538.89,422.77 L538.87,422.77 L538.84,422.78 L538.81,422.78 L538.78,422.78 C538.03,422.78,533.3,422.32,532.45,422.23 C532.05,422.18,531.75,421.93,531.75,421.28 C531.75,420.68,532.2,420.68,532.95,420.68 C535.34,420.68,535.44,420.34,535.44,419.84 L535.3,418.84 L532.3,407.03 C531.41,408.87,529.95,410.21,527.72,410.21 L527.77,409.12 C531,409.12,531.7,405.04,531.7,404.75 C531.7,404.43,531.61,404.14,531.56,403.89 L529.06,394.12 C528.81,393.23,528.81,393.14,528.06,392.28 C525.88,389.54,523.83,388.75,522.44,388.75 C519.95,388.75,519.25,391.48,519.25,393.43 C519.25,395.92,520.84,402.04,521.98,404.34 C523.53,407.28,525.78,409.12,527.77,409.12 L527.72,410.21 C521.89,410.21,515.72,402.9,515.72,395.62 C515.72,390.93,518.45,387.65,522.34,387.65 C523.33,387.65,525.83,387.86,528.81,391.39 C529.22,389.29,530.95,387.65,533.34,387.65 C535.09,387.65,536.23,388.79,537.03,390.39 C537.88,392.18,538.53,395.23,538.53,395.32 C538.53,395.82,538.08,395.82,537.94,395.82 C537.44,395.82,537.39,395.62,537.23,394.92 C536.39,391.68,535.48,388.75,533.45,388.75 C532.11,388.75,531.95,390.04,531.95,391.04 C531.95,392.23,532.05,392.59,532.25,393.43 Z "
           stroke-width="0"
           fill="black"
           id="path3000" /><path
           d="M544.03,391.14 L544.01,391.07 L544,390.99 L543.98,390.92 L543.96,390.84 L543.93,390.68 L543.89,390.52 L543.85,390.36 L543.82,390.2 L543.78,390.04 L543.74,389.88 L543.72,389.8 L543.71,389.73 L543.69,389.66 L543.68,389.59 L543.66,389.52 L543.65,389.45 L543.63,389.39 L543.62,389.33 L543.61,389.27 L543.6,389.22 L543.59,389.17 L543.59,389.13 L543.58,389.09 L543.58,389.05 L543.57,389.02 L543.57,389 C543.57,388.11,544.28,387.65,545.01,387.65 C545.62,387.65,546.51,388.04,546.85,389.04 C546.92,389.15,547.51,391.48,547.81,392.73 L548.9,397.21 C549.2,398.31,549.5,399.4,549.75,400.56 C549.95,401.4,550.35,402.84,550.4,403.04 C551.15,404.59,553.79,409.12,558.51,409.12 C560.76,409.12,561.22,407.28,561.22,405.64 C561.22,404.39,560.85,403,560.47,401.5 L559.07,395.71 L558.07,391.93 C557.87,390.93,557.42,389.25,557.42,389 C557.42,388.11,558.12,387.65,558.87,387.65 C560.42,387.65,560.72,388.9,561.1,390.5 C561.81,393.28,563.65,400.56,564.1,402.5 C564.25,403.15,566.89,409.12,572.32,409.12 C574.47,409.12,575.01,407.43,575.01,405.64 C575.01,402.79,572.92,397.12,571.92,394.48 C571.47,393.28,571.28,392.73,571.28,391.73 C571.28,389.4,573.01,387.65,575.35,387.65 C580.04,387.65,581.89,394.92,581.89,395.32 C581.89,395.82,581.43,395.82,581.29,395.82 C580.79,395.82,580.79,395.67,580.54,394.92 C579.79,392.28,578.2,388.75,575.47,388.75 C574.6,388.75,574.26,389.25,574.26,390.39 C574.26,391.64,574.72,392.84,575.15,393.93 C576.1,396.51,578.2,402.04,578.2,404.89 C578.2,408.12,576.2,410.21,572.47,410.21 C568.73,410.21,566.2,408.03,564.35,405.39 C564.29,406.04,564.15,407.73,562.75,408.92 C561.51,409.96,559.92,410.21,558.67,410.21 C554.18,410.21,551.75,407.03,550.9,405.89 C550.65,408.73,548.56,410.21,546.31,410.21 C544.03,410.21,543.07,408.28,542.62,407.39 C541.73,405.64,541.07,402.7,541.07,402.54 C541.07,402.04,541.57,402.04,541.68,402.04 C542.18,402.04,542.23,402.11,542.53,403.2 C543.37,406.73,544.37,409.12,546.17,409.12 C546.97,409.12,547.72,408.73,547.72,406.84 C547.72,405.79,547.56,405.23,546.92,402.65 Z "
           stroke-width="0"
           fill="black"
           id="path3002" /></g>    </g>
  </g>
  <g
     transform="matrix(6.3237593,0,0,6.3237593,-318.21896,-392.42593)"
     id="g3131"
     style="fill:#2d5016">
    <g
       style="font-style:normal;font-variant:normal;font-weight:normal;font-stretch:normal;letter-spacing:normal;word-spacing:normal;text-anchor:start;fill:#2d5016;stroke:#000000;stroke-linecap:butt;stroke-linejoin:miter;stroke-miterlimit:10.43299961;stroke-opacity:1;stroke-dasharray:none;stroke-dashoffset:0"
       id="g3133"
       transform="matrix(0.19285714,0,0,-0.19285714,-33.75,150)"
       xml:space="preserve"
       stroke-miterlimit="10.433"
       font-style="normal"
       font-variant="normal"
       font-weight="normal"
       font-stretch="normal"
       font-size-adjust="none"
       letter-spacing="normal"
       word-spacing="normal"><path
         style="fill:#2d5016;stroke-width:0"
         inkscape:connector-curvature="0"
         d="m 460.71,347.53 0.14,0.01 0.15,0.02 0.14,0.03 0.13,0.03 0.13,0.03 0.12,0.04 0.12,0.05 0.12,0.04 0.11,0.06 0.11,0.06 0.1,0.06 0.1,0.07 0.09,0.07 0.09,0.07 0.08,0.08 0.08,0.08 0.08,0.08 0.07,0.09 0.06,0.09 0.06,0.1 0.06,0.09 0.05,0.1 0.05,0.1 0.04,0.11 0.03,0.1 0.04,0.11 0.02,0.11 0.03,0.11 0.01,0.12 0.02,0.11 0,0.12 0,0.11 c 0,1.64 -1.25,2.44 -2.39,2.44 -1.2,0 -2.43,-0.75 -2.43,-2.48 0,-2.55 2.48,-4.64 5.51,-4.64 7.58,0 10.42,11.65 13.96,26.11 3.84,15.73 7.07,31.64 9.76,47.62 1.84,10.61 3.69,20.58 5.39,27 0.6,2.45 2.28,8.88 4.24,8.88 1.53,0 2.78,-0.96 2.98,-1.14 -1.64,-0.11 -2.48,-1.21 -2.48,-2.46 0,-1.64 1.23,-2.43 2.39,-2.43 1.18,0 2.43,0.74 2.43,2.48 0,2.7 -2.68,4.64 -5.43,4.64 -3.78,0 -6.58,-5.44 -9.32,-15.59 -0.15,-0.55 -6.92,-25.57 -12.4,-58.14 -1.3,-7.63 -2.74,-15.94 -4.39,-22.88 -0.89,-3.62 -3.19,-13 -7.22,-13 -1.8,0 -2.99,1.14 -3.03,1.14 z"
         id="path3135" /></g>  </g>
  <g
     id="g3161"
     transform="matrix(8.923836,0,0,8.923836,-434.27284,-507.04655)"
     style="fill:#225500">
    <g
       word-spacing="normal"
       letter-spacing="normal"
       font-size-adjust="none"
       font-stretch="normal"
       font-weight="normal"
       font-variant="normal"
       font-style="normal"
       stroke-miterlimit="10.433"
       xml:space="preserve"
       transform="matrix(0.19285714,0,0,-0.19285714,-33.75,150)"
       id="g3163"
       style="font-style:normal;font-variant:normal;font-weight:normal;font-stretch:normal;letter-spacing:normal;word-spacing:normal;text-anchor:start;fill:#225500;stroke:#000000;stroke-linecap:butt;stroke-linejoin:miter;stroke-miterlimit:10.43299961;stroke-opacity:1;stroke-dasharray:none;stroke-dashoffset:0"><path
         id="path3165"
         d="m 481.22,440.23 0,0 0,0.01 0,0 0,0.01 0,0.02 0,0.01 0,0.02 0,0.02 -0.01,0.02 0,0.02 -0.01,0.02 0,0.02 -0.01,0.02 -0.01,0.03 -0.01,0.02 -0.01,0.03 -0.02,0.02 -0.01,0.03 -0.02,0.02 -0.02,0.02 -0.02,0.03 -0.02,0.01 -0.01,0.01 -0.01,0.01 -0.02,0.01 -0.01,0.01 -0.02,0.01 -0.01,0.01 -0.02,0.01 -0.01,0.01 -0.02,0.01 -0.02,0 -0.02,0.01 -0.02,0.01 -0.02,0 -0.02,0.01 -0.03,0.01 -0.02,0 -0.02,0 -0.03,0.01 -0.03,0 -0.02,0 -0.03,0.01 -0.03,0 -0.03,0 c -0.75,0 -5.48,-0.46 -6.33,-0.55 -0.4,-0.05 -0.7,-0.3 -0.7,-0.95 0,-0.6 0.45,-0.6 1.2,-0.6 2.39,0 2.49,-0.34 2.49,-0.84 l -0.14,-1 -3,-11.81 c -0.89,1.84 -2.35,3.18 -4.58,3.18 l 0.05,-1.09 c 3.23,0 3.93,-4.08 3.93,-4.37 0,-0.32 -0.09,-0.61 -0.14,-0.86 l -2.5,-9.77 c -0.25,-0.89 -0.25,-0.98 -1,-1.84 -2.18,-2.74 -4.23,-3.53 -5.62,-3.53 -2.49,0 -3.19,2.73 -3.19,4.68 0,2.49 1.59,8.61 2.74,10.91 1.54,2.94 3.79,4.78 5.78,4.78 l -0.05,1.09 c -5.83,0 -12,-7.31 -12,-14.59 0,-4.69 2.73,-7.97 6.62,-7.97 0.99,0 3.49,0.21 6.47,3.74 0.41,-2.1 2.14,-3.74 4.53,-3.74 1.75,0 2.9,1.14 3.69,2.74 0.85,1.79 1.5,4.84 1.5,4.93 0,0.5 -0.45,0.5 -0.59,0.5 -0.5,0 -0.55,-0.2 -0.7,-0.9 -0.85,-3.24 -1.75,-6.17 -3.79,-6.17 -1.34,0 -1.5,1.29 -1.5,2.29 0,1.19 0.1,1.55 0.3,2.39 z"
         inkscape:connector-curvature="0"
         style="fill:#225500;stroke-width:0" /><path
         id="path3167"
         d="m 485.83,409.14 -0.02,-0.07 -0.01,-0.08 -0.02,-0.07 -0.02,-0.08 -0.03,-0.16 -0.04,-0.16 -0.04,-0.16 -0.03,-0.16 -0.04,-0.16 -0.04,-0.16 -0.01,-0.08 -0.02,-0.07 -0.02,-0.07 -0.01,-0.07 -0.02,-0.07 -0.01,-0.07 -0.01,-0.06 -0.02,-0.06 -0.01,-0.06 -0.01,-0.05 0,-0.05 -0.01,-0.04 -0.01,-0.04 0,-0.04 0,-0.03 0,-0.02 c 0,-0.89 0.7,-1.35 1.43,-1.35 0.61,0 1.5,0.39 1.85,1.39 0.06,0.11 0.65,2.44 0.95,3.69 l 1.09,4.48 c 0.3,1.1 0.6,2.19 0.85,3.35 0.2,0.84 0.61,2.28 0.65,2.48 0.75,1.55 3.39,6.08 8.11,6.08 2.25,0 2.71,-1.84 2.71,-3.48 0,-1.25 -0.36,-2.64 -0.75,-4.14 l -1.39,-5.79 -1,-3.78 c -0.21,-1 -0.66,-2.68 -0.66,-2.93 0,-0.89 0.7,-1.35 1.45,-1.35 1.55,0 1.85,1.25 2.24,2.85 0.7,2.78 2.54,10.06 3,12 0.14,0.65 2.78,6.62 8.21,6.62 2.15,0 2.69,-1.69 2.69,-3.48 0,-2.85 -2.09,-8.52 -3.09,-11.16 -0.45,-1.2 -0.64,-1.75 -0.64,-2.75 0,-2.33 1.73,-4.08 4.08,-4.08 4.68,0 6.53,7.27 6.53,7.67 0,0.5 -0.46,0.5 -0.6,0.5 -0.5,0 -0.5,-0.15 -0.75,-0.9 -0.75,-2.64 -2.34,-6.17 -5.07,-6.17 -0.86,0 -1.21,0.5 -1.21,1.64 0,1.25 0.46,2.45 0.89,3.54 0.96,2.58 3.05,8.11 3.05,10.96 0,3.23 -2,5.32 -5.73,5.32 -3.74,0 -6.27,-2.18 -8.11,-4.82 -0.07,0.65 -0.21,2.34 -1.61,3.53 -1.24,1.04 -2.83,1.29 -4.08,1.29 -4.49,0 -6.92,-3.18 -7.77,-4.32 -0.25,2.84 -2.34,4.32 -4.59,4.32 -2.28,0 -3.23,-1.93 -3.69,-2.82 -0.89,-1.75 -1.54,-4.69 -1.54,-4.85 0,-0.5 0.5,-0.5 0.6,-0.5 0.5,0 0.55,0.07 0.85,1.16 0.84,3.53 1.84,5.92 3.64,5.92 0.8,0 1.55,-0.39 1.55,-2.28 0,-1.05 -0.16,-1.61 -0.8,-4.19 z"
         inkscape:connector-curvature="0"
         style="fill:#225500;stroke-width:0" /></g>  </g>
</svg>
